<?xml version="1.0" encoding="UTF-8" standalone="no"?>
<svg
   viewBox="0 0 576 512"
   version="1.1"
   id="svg1"
   sodipodi:docname="map-location-dot-solid.svg"
   inkscape:version="1.3.2 (091e20e, 2023-11-25, custom)"
   xmlns:inkscape="http://www.inkscape.org/namespaces/inkscape"
   xmlns:sodipodi="http://sodipodi.sourceforge.net/DTD/sodipodi-0.dtd"
   xmlns="http://www.w3.org/2000/svg"
   xmlns:svg="http://www.w3.org/2000/svg">
  <defs
     id="defs1" />
  <sodipodi:namedview
     id="namedview1"
     pagecolor="#ffffff"
     bordercolor="#000000"
     borderopacity="0.25"
     inkscape:showpageshadow="2"
     inkscape:pageopacity="0.0"
     inkscape:pagecheckerboard="0"
     inkscape:deskcolor="#d1d1d1"
     inkscape:zoom="1.6035156"
     inkscape:cx="287.80512"
     inkscape:cy="256"
     inkscape:window-width="1920"
     inkscape:window-height="1017"
     inkscape:window-x="-8"
     inkscape:window-y="-8"
     inkscape:window-maximized="1"
     inkscape:current-layer="svg1" />
  <!--!Font Awesome Free 6.5.1 by @fontawesome - https://fontawesome.com License - https://fontawesome.com/license/free Copyright 2024 Fonticons, Inc.-->
  <path
     d="m 288,72 a 40,40 0 0 0 0,80 40,40 0 0 0 0,-80 z"
     style=""
     id="path6"
     fill="#FFFFFF" />
  <path
     d="M 554.90625,128.13672 C 566.38124,129.53828 576,139.25001 576,152 v 270.80078 c 0,9.79999 -5.99962,18.59883 -15.09961,22.29883 L 416,503 V 200.40039 c 3.5,-6.89999 6.69961,-13.79962 9.59961,-20.59961 0.5,-1.2 1,-2.50117 1.5,-3.70117 l 116,-46.40039 c 3.95,-1.575 7.98164,-2.02969 11.80664,-1.5625 z"
     style=""
     id="path5"
     fill="#005DFF" />
  <path
     d="m 192,255 v 194.40039 l 192,54.90039 V 255 c -20.49998,31.29997 -42.29923,59.60002 -56.19922,77 -20.49998,25.59997 -59.10158,25.59997 -79.60156,0 C 234.29923,314.60002 212.49998,286.29997 192,255 Z"
     style=""
     id="path4"
     fill="#008FFF" />
  <path
     d="M 137.60742,138.33789 15.099609,187.30078 C 5.9996185,191.00078 0,199.79962 0,209.59961 v 270.80078 c 0,16.99998 17.100406,28.59882 32.900391,22.29883 L 160,451.80078 V 200.40039 c -3.5,-6.89999 -6.69961,-13.79962 -9.59961,-20.59961 -5.59508,-13.18841 -10.39087,-27.3751 -12.79297,-41.46289 z"
     style=""
     id="path3"
     fill="#008FFF"  />
  <path
     d="m 288,0 c -66.29993,0 -120,53.700066 -120,120 0,54.59995 73.09925,151.90004 105.19922,192 7.59999,9.59999 21.90157,9.59999 29.60156,0 C 334.90075,271.90004 408,174.59995 408,120 408,53.700066 354.29993,0 288,0 Z m 0,72 a 40,40 0 0 1 0,80 40,40 0 0 1 0,-80 z"
     style=""
     id="path2"
     fill="#FF0000" />
</svg>
