<?xml version="1.0" encoding="UTF-8" standalone="no"?>
<svg
   viewBox="0 0 640 512"
   version="1.1"
   id="svg1"
   sodipodi:docname="user-check-solid.svg"
   inkscape:version="1.3.2 (091e20e, 2023-11-25, custom)"
   xmlns:inkscape="http://www.inkscape.org/namespaces/inkscape"
   xmlns:sodipodi="http://sodipodi.sourceforge.net/DTD/sodipodi-0.dtd"
   xmlns="http://www.w3.org/2000/svg"
   xmlns:svg="http://www.w3.org/2000/svg">
  <defs
     id="defs1" />
  <sodipodi:namedview
     id="namedview1"
     pagecolor="#ffffff"
     bordercolor="#000000"
     borderopacity="0.25"
     inkscape:showpageshadow="2"
     inkscape:pageopacity="0.0"
     inkscape:pagecheckerboard="0"
     inkscape:deskcolor="#d1d1d1"
     inkscape:zoom="1.6035156"
     inkscape:cx="320.23386"
     inkscape:cy="256"
     inkscape:window-width="1920"
     inkscape:window-height="1017"
     inkscape:window-x="-8"
     inkscape:window-y="-8"
     inkscape:window-maximized="1"
     inkscape:current-layer="svg1" />
  <!--!Font Awesome Free 6.5.1 by @fontawesome - https://fontawesome.com License - https://fontawesome.com/license/free Copyright 2024 Fonticons, Inc.-->
  <path
     d="M 178.30078,304 C 79.80088,304 0,383.80088 0,482.30078 0,498.70076 13.299235,512 29.699219,512 H 418.30078 C 434.70076,512 448,498.70076 448,482.30078 448,383.80088 368.19912,304 269.69922,304 Z"
     style=""
     id="path4"
     fill="#008FFF" />
  <path
     d="M 607.98828,135.94922 C 601.85079,135.94922 595.7,138.3 591,143 l -111,111.09961 -47,-47 c -9.29999,-9.39999 -24.5004,-9.29999 -33.90039,0 -9.39999,9.29999 -9.39999,24.5004 0,33.90039 l 64,64 c 9.29999,9.39999 24.5004,9.39999 33.90039,0 l 128,-128 -0.0996,-0.0996 c 9.39999,-9.29999 9.29999,-24.5004 0,-33.90039 -4.64999,-4.7 -10.77461,-7.05078 -16.91211,-7.05078 z"
     style=""
     id="path3"
     fill="#00CF00" />
  <path
     d="M 224,0 A 128,128 0 0 0 96,128 128,128 0 0 0 352,128 128,128 0 0 0 224,0 Z"
     style=""
     id="path2"
     fill="#005DFF" />
</svg>
