<?xml version="1.0" encoding="UTF-8" standalone="no"?>
<svg
   viewBox="0 0 512 512"
   version="1.1"
   id="svg1"
   sodipodi:docname="clock-regular.svg"
   inkscape:version="1.3.2 (091e20e, 2023-11-25, custom)"
   xmlns:inkscape="http://www.inkscape.org/namespaces/inkscape"
   xmlns:sodipodi="http://sodipodi.sourceforge.net/DTD/sodipodi-0.dtd"
   xmlns="http://www.w3.org/2000/svg"
   xmlns:svg="http://www.w3.org/2000/svg">
  <defs
     id="defs1" />
  <sodipodi:namedview
     id="namedview1"
     pagecolor="#ffffff"
     bordercolor="#000000"
     borderopacity="0.25"
     inkscape:showpageshadow="2"
     inkscape:pageopacity="0.0"
     inkscape:pagecheckerboard="0"
     inkscape:deskcolor="#d1d1d1"
     inkscape:zoom="1.6035156"
     inkscape:cx="256"
     inkscape:cy="256"
     inkscape:window-width="1920"
     inkscape:window-height="1017"
     inkscape:window-x="-8"
     inkscape:window-y="-8"
     inkscape:window-maximized="1"
     inkscape:current-layer="svg1" />
  <!--!Font Awesome Free 6.5.1 by @fontawesome - https://fontawesome.com License - https://fontawesome.com/license/free Copyright 2024 Fonticons, Inc.-->
  <path
     d="m 256,96 c -13.29999,0 -24,10.70001 -24,24 v 136 c 0,7.99999 3.99923,15.5 10.69922,20 l 96,64 c 10.99999,7.39999 25.90079,4.40077 33.30078,-6.69922 7.39999,-11.09999 4.40077,-25.90079 -6.69922,-33.30078 L 280,243.19922 V 120 c 0,-13.29999 -10.70001,-24 -24,-24 z"
     style=""
     id="path7"
     fill="#005DFF" />
  <path
     d="M 238.82422,48.710937 A 208,208 0 0 0 48,256 208,208 0 0 0 464,256 208,208 0 0 0 238.82422,48.710937 Z M 256,96 c 13.29999,0 24,10.70001 24,24 V 243.19922 L 365.30078,300 c 11.09999,7.39999 14.09921,22.20079 6.69922,33.30078 -7.39999,11.09999 -22.30079,14.09921 -33.30078,6.69922 l -96,-64 C 235.99923,271.5 232,263.99999 232,256 V 120 c 0,-13.29999 10.70001,-24 24,-24 z"
     style=""
     id="path6"
     fill="#FFFFFF" />
  <path
     d="M 236.86914,0.71679687 A 256,256 0 0 0 0,256 256,256 0 0 0 512,256 256,256 0 0 0 236.86914,0.71679687 Z M 238.82422,48.710937 A 208,208 0 0 1 464,256 208,208 0 0 1 48,256 208,208 0 0 1 238.82422,48.710937 Z"
     style=""
     id="path5"
     fill="#005DFF" />
</svg>
